ply
format ascii 1.0
comment Created in Blender version 4.0.2
element vertex 84
property float x
property float y
property float z
property float nx
property float ny
property float nz
property uchar red
property uchar green
property uchar blue
property uchar alpha
property float s
property float t
element face 72
property list uchar uint vertex_indices
end_header
-5 10 4 -0.11547006 0.05773503 0.28867516 0 255 255 255 0.875 0.5
5 -10 4 0.11547006 -0.05773503 0.28867516 0 255 255 255 0.625 0.75
5 10 4 0.11547006 0.05773503 0.28867516 0 255 255 255 0.625 0.5
-5 -10 0 -0.11547006 -0.05773503 -0.28867516 0 255 255 255 0.375 1
5 -10 0 0.11547006 -0.05773503 -0.28867516 0 255 255 255 0.375 0.75
-5 -10 4 -0.11547006 -0.05773503 0.28867516 0 255 255 255 0.625 0
-5 10 0 -0.11547006 0.05773503 -0.28867516 0 255 255 255 0.375 0.25
-5 -10 0 -0.11547006 -0.05773503 -0.28867516 0 255 255 255 0.375 0
5 10 0 0.11547006 0.05773503 -0.28867516 0 255 255 255 0.375 0.5
-5 -10 0 -0.11547006 -0.05773503 -0.28867516 0 255 255 255 0.125 0.75
-5 10 0 -0.11547006 0.05773503 -0.28867516 0 255 255 255 0.125 0.5
-5 10 4 -0.11547006 0.05773503 0.28867516 0 255 255 255 0.625 0.25
-5 -10 4 -0.11547006 -0.05773503 0.28867516 0 255 255 255 0.875 0.75
-5 -10 4 -0.11547006 -0.05773503 0.28867516 0 255 255 255 0.625 1
-6 -11 4.5 -0.09622505 -0.052486394 1.1547006 125 200 20 255 0.625 0
-6 11 3.5 -0.09622505 0.052486394 -1.1547006 125 200 20 255 0.375 0.25
-6 -11 3.5 -0.09622505 -0.052486394 -1.1547006 125 200 20 255 0.375 0
-6 11 4.5 -0.09622505 0.052486394 1.1547006 125 200 20 255 0.625 0.25
6 11 3.5 0.09622505 0.052486394 -1.1547006 125 200 20 255 0.375 0.5
6 11 4.5 0.09622505 0.052486394 1.1547006 125 200 20 255 0.625 0.5
6 -11 3.5 0.09622505 -0.052486394 -1.1547006 125 200 20 255 0.375 0.75
6 -11 4.5 0.09622505 -0.052486394 1.1547006 125 200 20 255 0.625 0.75
-6 -11 3.5 -0.09622505 -0.052486394 -1.1547006 125 200 20 255 0.375 1
-6 -11 3.5 -0.09622505 -0.052486394 -1.1547006 125 200 20 255 0.125 0.75
-6 11 3.5 -0.09622505 0.052486394 -1.1547006 125 200 20 255 0.125 0.5
-6 11 4.5 -0.09622505 0.052486394 1.1547006 125 200 20 255 0.875 0.5
-6 -11 4.5 -0.09622505 -0.052486394 1.1547006 125 200 20 255 0.625 1
-6 -11 4.5 -0.09622505 -0.052486394 1.1547006 125 200 20 255 0.875 0.75
5 -8 3 -5.7735033 -0.07216879 0.5773503 50 10 75 255 0.625 0
5 8 1 -5.7735033 0.07216879 -0.5773503 50 10 75 255 0.375 0.25
5 -8 1 -5.7735033 -0.07216879 -0.5773503 50 10 75 255 0.375 0
5 8 3 -5.7735033 0.07216879 0.5773503 50 10 75 255 0.625 0.25
5.2 8 1 5.7735033 0.07216879 -0.5773503 50 10 75 255 0.375 0.5
5.2 8 3 5.7735033 0.07216879 0.5773503 50 10 75 255 0.625 0.5
5.2 -8 1 5.7735033 -0.07216879 -0.5773503 50 10 75 255 0.375 0.75
5.2 -8 3 5.7735033 -0.07216879 0.5773503 50 10 75 255 0.625 0.75
5 -8 1 -5.7735033 -0.07216879 -0.5773503 50 10 75 255 0.375 1
5 -8 1 -5.7735033 -0.07216879 -0.5773503 50 10 75 255 0.125 0.75
5 8 1 -5.7735033 0.07216879 -0.5773503 50 10 75 255 0.125 0.5
5 8 3 -5.7735033 0.07216879 0.5773503 50 10 75 255 0.875 0.5
5 -8 3 -5.7735033 -0.07216879 0.5773503 50 10 75 255 0.625 1
5 -8 3 -5.7735033 -0.07216879 0.5773503 50 10 75 255 0.875 0.75
-3 -10.200001 3 -0.1924501 -5.7735033 0.5773503 50 10 75 255 0.625 0
-3 -10 1 -0.1924501 5.7735033 -0.5773503 50 10 75 255 0.375 0.25
-3 -10.200001 1 -0.1924501 -5.7735033 -0.5773503 50 10 75 255 0.375 0
-3 -10 3 -0.1924501 5.7735033 0.5773503 50 10 75 255 0.625 0.25
3 -10 1 0.1924501 5.7735033 -0.5773503 50 10 75 255 0.375 0.5
3 -10 3 0.1924501 5.7735033 0.5773503 50 10 75 255 0.625 0.5
3 -10.200001 1 0.1924501 -5.7735033 -0.5773503 50 10 75 255 0.375 0.75
3 -10.200001 3 0.1924501 -5.7735033 0.5773503 50 10 75 255 0.625 0.75
-3 -10.200001 1 -0.1924501 -5.7735033 -0.5773503 50 10 75 255 0.375 1
-3 -10.200001 1 -0.1924501 -5.7735033 -0.5773503 50 10 75 255 0.125 0.75
-3 -10 1 -0.1924501 5.7735033 -0.5773503 50 10 75 255 0.125 0.5
-3 -10 3 -0.1924501 5.7735033 0.5773503 50 10 75 255 0.875 0.5
-3 -10.200001 3 -0.1924501 -5.7735033 0.5773503 50 10 75 255 0.625 1
-3 -10.200001 3 -0.1924501 -5.7735033 0.5773503 50 10 75 255 0.875 0.75
-5.2 -8 3 -5.7735033 -0.07216879 0.5773503 50 10 75 255 0.625 0
-5.2 8 1 -5.7735033 0.07216879 -0.5773503 50 10 75 255 0.375 0.25
-5.2 -8 1 -5.7735033 -0.07216879 -0.5773503 50 10 75 255 0.375 0
-5.2 8 3 -5.7735033 0.07216879 0.5773503 50 10 75 255 0.625 0.25
-5 8 1 5.7735033 0.07216879 -0.5773503 50 10 75 255 0.375 0.5
-5 8 3 5.7735033 0.07216879 0.5773503 50 10 75 255 0.625 0.5
-5 -8 1 5.7735033 -0.07216879 -0.5773503 50 10 75 255 0.375 0.75
-5 -8 3 5.7735033 -0.07216879 0.5773503 50 10 75 255 0.625 0.75
-5.2 -8 1 -5.7735033 -0.07216879 -0.5773503 50 10 75 255 0.375 1
-5.2 -8 1 -5.7735033 -0.07216879 -0.5773503 50 10 75 255 0.125 0.75
-5.2 8 1 -5.7735033 0.07216879 -0.5773503 50 10 75 255 0.125 0.5
-5.2 8 3 -5.7735033 0.07216879 0.5773503 50 10 75 255 0.875 0.5
-5.2 -8 3 -5.7735033 -0.07216879 0.5773503 50 10 75 255 0.625 1
-5.2 -8 3 -5.7735033 -0.07216879 0.5773503 50 10 75 255 0.875 0.75
-3 10 3 -0.1924501 -5.7735033 0.5773503 50 10 75 255 0.625 0
-3 10.200001 1 -0.1924501 5.7735033 -0.5773503 50 10 75 255 0.375 0.25
-3 10 1 -0.1924501 -5.7735033 -0.5773503 50 10 75 255 0.375 0
-3 10.200001 3 -0.1924501 5.7735033 0.5773503 50 10 75 255 0.625 0.25
3 10.200001 1 0.1924501 5.7735033 -0.5773503 50 10 75 255 0.375 0.5
3 10.200001 3 0.1924501 5.7735033 0.5773503 50 10 75 255 0.625 0.5
3 10 1 0.1924501 -5.7735033 -0.5773503 50 10 75 255 0.375 0.75
3 10 3 0.1924501 -5.7735033 0.5773503 50 10 75 255 0.625 0.75
-3 10 1 -0.1924501 -5.7735033 -0.5773503 50 10 75 255 0.375 1
-3 10 1 -0.1924501 -5.7735033 -0.5773503 50 10 75 255 0.125 0.75
-3 10.200001 1 -0.1924501 5.7735033 -0.5773503 50 10 75 255 0.125 0.5
-3 10.200001 3 -0.1924501 5.7735033 0.5773503 50 10 75 255 0.875 0.5
-3 10 3 -0.1924501 -5.7735033 0.5773503 50 10 75 255 0.625 1
-3 10 3 -0.1924501 -5.7735033 0.5773503 50 10 75 255 0.875 0.75
3 0 1 2
3 1 3 4
3 5 6 7
3 8 9 10
3 2 4 8
3 11 8 6
3 0 12 1
3 1 13 3
3 5 11 6
3 8 4 9
3 2 1 4
3 11 2 8
3 14 15 16
3 17 18 15
3 19 20 18
3 21 22 20
3 18 23 24
3 25 21 19
3 19 21 20
3 21 26 22
3 25 27 21
3 14 17 15
3 17 19 18
3 18 20 23
3 28 29 30
3 31 32 29
3 33 34 32
3 35 36 34
3 32 37 38
3 39 35 33
3 33 35 34
3 28 31 29
3 31 33 32
3 35 40 36
3 32 34 37
3 39 41 35
3 42 43 44
3 45 46 43
3 47 48 46
3 49 50 48
3 46 51 52
3 53 49 47
3 42 45 43
3 45 47 46
3 47 49 48
3 49 54 50
3 46 48 51
3 53 55 49
3 56 57 58
3 59 60 57
3 61 62 60
3 63 64 62
3 60 65 66
3 67 63 61
3 56 59 57
3 59 61 60
3 61 63 62
3 63 68 64
3 60 62 65
3 67 69 63
3 70 71 72
3 73 74 71
3 75 76 74
3 77 78 76
3 74 79 80
3 81 77 75
3 70 73 71
3 73 75 74
3 75 77 76
3 77 82 78
3 74 76 79
3 81 83 77
